<svg width="145" height="41" viewBox="0 0 145 41" fill="none" xmlns="http://www.w3.org/2000/svg">
<g clip-path="url(#clip0_2016_1119)">
<path d="M17.4415 0L0 10.247V30.7329L17.4415 40.9719L34.8673 30.7329V10.247L17.4415 0ZM29.7074 27.6962L17.4415 34.8984L5.17166 27.6962V13.2757L17.4415 6.07348L29.7074 13.2757V27.6962Z" fill="white"/>
<path d="M17.4414 40.9719L34.8671 30.7329V10.247L17.4414 0V6.0775L29.7073 13.2797V27.7002L17.4414 34.8984V40.9679V40.9719Z" fill="white"/>
<path d="M17.4257 0L0 10.239V30.7249L17.4257 40.9719V34.8944L5.15982 27.6922V13.2717L17.4257 6.07348V0Z" fill="white"/>
<path d="M25.5734 25.2736L17.433 30.0536L9.28467 25.2736V15.7054L17.433 10.9174L25.5734 15.7054L22.1862 17.6978L17.433 14.9021L12.6798 17.6978V23.2732L17.433 26.0689L22.1862 23.2732L25.5734 25.2736Z" fill="white"/>
<path d="M47.773 22.0368V21.9805C47.7611 20.896 47.9625 19.8195 48.3651 18.8113C48.7678 17.807 49.3639 16.8912 50.118 16.124C50.872 15.3568 51.7721 14.7502 52.7591 14.3405C53.746 13.9308 54.804 13.7259 55.8739 13.738C57.0425 13.6978 58.2071 13.9227 59.2809 14.3967C60.3547 14.8707 61.3101 15.5857 62.076 16.4855L59.8415 18.9117C58.7558 17.7709 57.607 16.9354 55.8463 16.9354C53.2604 16.9354 51.3497 19.2089 51.3497 21.9605V22.0207C51.3497 24.8285 53.2604 27.0699 55.9884 27.0699C56.7582 27.0538 57.5202 26.8731 58.2189 26.5397C58.9177 26.2063 59.5375 25.7243 60.0389 25.1257L62.1865 27.2828C61.1206 28.5802 59.6875 29.5121 58.0847 29.958C56.4819 30.4039 54.7843 30.3356 53.221 29.7692C51.6576 29.2028 50.2996 28.1625 49.3323 26.7847C48.3651 25.4109 47.8361 23.768 47.8164 22.077L47.7769 22.0368H47.773Z" fill="white"/>
<path d="M65.3755 14.059H68.9601V17.6179C69.9313 15.256 71.7197 13.6413 74.4555 13.7577V17.5898H74.2542C71.1354 17.5898 68.9641 19.6505 68.9641 23.832V29.8412H65.3794V14.059H65.3755Z" fill="white"/>
<path d="M76.1617 22.036V21.9798C76.213 19.7906 77.1052 17.7059 78.6449 16.1714C80.1845 14.637 82.2492 13.7774 84.4048 13.7693C86.5603 13.7613 88.6329 14.6089 90.1804 16.1313C91.7319 17.6536 92.636 19.7304 92.7071 21.9195V21.9798C92.7071 23.0804 92.4899 24.169 92.0714 25.1852C91.649 26.2015 91.0371 27.1173 90.2594 27.8846C89.4856 28.6518 88.5658 29.2543 87.5591 29.656C86.5524 30.0577 85.4746 30.2465 84.3929 30.2184C83.3191 30.2465 82.2532 30.0537 81.2544 29.656C80.2556 29.2583 79.3476 28.6558 78.5777 27.8926C77.8119 27.1294 77.2 26.2176 76.7854 25.2093C76.3709 24.2011 76.1577 23.1206 76.1617 22.028V22.036ZM89.1461 22.036V21.9798C89.1737 21.325 89.0711 20.6703 88.8461 20.0557C88.621 19.4411 88.2736 18.8828 87.8315 18.4048C87.3893 17.9308 86.8524 17.5492 86.2642 17.2921C85.672 17.031 85.0364 16.8945 84.3929 16.8904C81.5386 16.8904 79.7147 19.164 79.7147 21.9155V21.9758C79.691 22.6265 79.7937 23.2732 80.0187 23.8798C80.2437 24.4863 80.5872 25.0446 81.0294 25.5146C81.4715 25.9846 81.9966 26.3622 82.5848 26.6192C83.1691 26.8803 83.8007 27.0169 84.4403 27.0209C87.3301 27.0209 89.1501 24.7474 89.1501 22.028L89.1461 22.036Z" fill="white"/>
<path d="M96.2868 14.0591H99.8556V16.4853C100.361 15.6377 101.076 14.9428 101.924 14.4608C102.773 13.9787 103.732 13.7297 104.708 13.7377C108.205 13.7377 110.231 16.1278 110.231 19.7751V29.8493H106.674V20.8717C106.674 18.4214 105.473 17.0195 103.353 17.0195C101.233 17.0195 99.8556 18.4897 99.8556 20.9359V29.8654H96.271L96.2828 14.0631L96.2868 14.0591Z" fill="white"/>
<path d="M113.691 22.036V21.9798C113.742 19.7906 114.634 17.7059 116.174 16.1714C117.713 14.637 119.778 13.7774 121.934 13.7693C124.089 13.7613 126.162 14.6089 127.709 16.1313C129.261 17.6536 130.165 19.7304 130.232 21.9195V21.9798C130.232 23.0804 130.015 24.169 129.596 25.1852C129.174 26.2015 128.562 27.1173 127.784 27.8846C127.011 28.6518 126.091 29.2543 125.084 29.656C124.077 30.0577 123 30.2465 121.918 30.2184C120.844 30.2465 119.778 30.0537 118.779 29.656C117.78 29.2583 116.872 28.6558 116.103 27.8926C115.337 27.1294 114.725 26.2176 114.31 25.2093C113.896 24.2011 113.683 23.1206 113.687 22.028L113.691 22.036ZM126.675 22.036V21.9798C126.703 21.325 126.6 20.6703 126.375 20.0557C126.15 19.4411 125.802 18.8828 125.36 18.4048C124.918 17.9308 124.381 17.5492 123.793 17.2921C123.201 17.031 122.565 16.8945 121.922 16.8904C119.067 16.8904 117.244 19.164 117.244 21.9155V21.9758C117.22 22.6265 117.323 23.2732 117.548 23.8798C117.773 24.4863 118.116 25.0446 118.558 25.5146C119 25.9846 119.525 26.3622 120.114 26.6192C120.698 26.8803 121.33 27.0169 121.969 27.0209C124.839 27.0209 126.679 24.7474 126.679 22.028L126.675 22.036Z" fill="white"/>
<path d="M132.581 27.7808L134.168 25.3305C135.617 26.5074 137.397 27.1903 139.249 27.2746C140.781 27.2746 141.657 26.5878 141.657 25.5715V25.5112C141.657 24.2901 140.019 23.8683 138.195 23.2979C135.901 22.6111 133.343 21.6832 133.343 18.6987V18.6384C133.343 15.6177 135.787 13.7981 138.87 13.7981C140.899 13.8383 142.873 14.4569 144.567 15.5896L143.157 18.1564C141.851 17.2807 140.343 16.7666 138.783 16.6661C137.433 16.6661 136.608 17.353 136.608 18.2166V18.2769C136.608 19.4458 138.282 19.9198 140.106 20.5143C142.368 21.2373 144.926 22.2777 144.926 25.1216V25.1778C144.926 28.4998 142.395 30.1427 139.162 30.1427C136.77 30.1266 134.452 29.2951 132.581 27.7808Z" fill="white"/>
</g>
<defs>
<clipPath id="clip0_2016_1119">
<rect width="145" height="41" fill="white"/>
</clipPath>
</defs>
</svg>
